<?xml version="1.0" encoding="UTF-8"?>
<svg version="1.1" xmlns="http://www.w3.org/2000/svg" width="200" height="200">
<path d="M0 0 C7.63682087 3.75042687 14.6016186 8.27468922 17.47265625 16.62109375 C18.46918451 21.01454679 18.56321356 25.51562127 18.0078125 29.98046875 C17.3478125 30.97046875 16.6878125 31.96046875 16.0078125 32.98046875 C14.76624367 35.31753948 13.8491279 37.45652255 13.0078125 39.98046875 C12.0178125 40.47546875 12.0178125 40.47546875 11.0078125 40.98046875 C12.1834375 41.59921875 12.1834375 41.59921875 13.3828125 42.23046875 C16.22335803 44.12416577 16.60827765 45.00645719 18.0078125 47.98046875 C18.75417969 48.67527344 19.50054687 49.37007812 20.26953125 50.0859375 C23.57075251 53.57553087 25.61029873 57.18547982 27.8203125 61.41796875 C28.22701172 62.15595703 28.63371094 62.89394531 29.05273438 63.65429688 C31.31605797 67.93369023 32.53536027 71.01207107 32.0078125 75.98046875 C32.6678125 75.98046875 33.3278125 75.98046875 34.0078125 75.98046875 C34.92323166 81.45922492 35.18260448 86.7665591 35.2109375 92.31640625 C35.21663757 93.1951944 35.22233765 94.07398254 35.22821045 94.97940063 C35.23761261 96.83000502 35.24417528 98.68062578 35.24804688 100.53125 C35.25775951 103.34014422 35.28883119 106.14830803 35.3203125 108.95703125 C35.32684344 110.76431862 35.33209355 112.57161117 35.3359375 114.37890625 C35.3544577 115.62152725 35.3544577 115.62152725 35.37335205 116.88925171 C35.35135926 122.73409513 34.15308272 127.55270965 32.0078125 132.98046875 C31.3478125 132.98046875 30.6878125 132.98046875 30.0078125 132.98046875 C29.9665625 133.92921875 29.9253125 134.87796875 29.8828125 135.85546875 C29.14940368 141.19731209 26.11669614 145.67586064 23.0078125 149.98046875 C22.3478125 150.31046875 21.6878125 150.64046875 21.0078125 150.98046875 C20.6778125 151.97046875 20.3478125 152.96046875 20.0078125 153.98046875 C19.3478125 154.31046875 18.6878125 154.64046875 18.0078125 154.98046875 C17.7190625 155.61984375 17.4303125 156.25921875 17.1328125 156.91796875 C16.0078125 158.98046875 16.0078125 158.98046875 14.1875 159.8671875 C11.61184492 161.18271025 10.01383208 162.77892504 8.0078125 164.85546875 C7.3478125 165.53351563 6.6878125 166.2115625 6.0078125 166.91015625 C5.3478125 167.59335938 4.6878125 168.2765625 4.0078125 168.98046875 C3.2859375 169.68429688 2.5640625 170.388125 1.8203125 171.11328125 C-0.05780752 172.85996288 -0.05780752 172.85996288 -0.9921875 174.98046875 C-2.65885417 175.31380208 -4.32552083 175.64713542 -5.9921875 175.98046875 C-8.22386592 177.16759513 -8.22386592 177.16759513 -10.4296875 178.66796875 C-33.98060461 193.1742205 -63.19887243 196.65605882 -90.03051758 190.81665039 C-101.99235553 187.94702061 -112.57297695 182.97134019 -123.06640625 176.6171875 C-125.79627468 174.91234263 -125.79627468 174.91234263 -128.32421875 174.4375 C-129.14986328 174.21126953 -129.14986328 174.21126953 -129.9921875 173.98046875 C-130.3221875 172.99046875 -130.6521875 172.00046875 -130.9921875 170.98046875 C-131.9203125 170.79484375 -131.9203125 170.79484375 -132.8671875 170.60546875 C-135.96113224 169.695485 -136.37557053 167.71628208 -137.9921875 164.98046875 C-140.74768667 162.30870022 -143.80101257 160.1079187 -146.9921875 157.98046875 C-147.3221875 156.99046875 -147.6521875 156.00046875 -147.9921875 154.98046875 C-148.73984375 154.26375 -149.4875 153.54703125 -150.2578125 152.80859375 C-153.54873478 149.40483984 -155.55333215 145.89445284 -157.7421875 141.73046875 C-158.14050781 141.01761719 -158.53882813 140.30476562 -158.94921875 139.5703125 C-161.7452731 134.30993907 -162.63970042 129.92575079 -162.9921875 123.98046875 C-163.6521875 123.98046875 -164.3121875 123.98046875 -164.9921875 123.98046875 C-165.0428395 117.62674356 -165.07790072 111.27307031 -165.10205078 104.91918945 C-165.11211701 102.75706028 -165.12577104 100.59494475 -165.14306641 98.43286133 C-165.16728728 95.3276025 -165.17866431 92.22252345 -165.1875 89.1171875 C-165.19782257 88.14835129 -165.20814514 87.17951508 -165.21878052 86.18132019 C-165.21893158 85.28061295 -165.21908264 84.3799057 -165.21923828 83.4519043 C-165.2236795 82.65914597 -165.22812073 81.86638763 -165.23269653 81.04960632 C-164.85747909 77.82155084 -162.77135243 75.64921614 -160.9921875 72.98046875 C-160.43098661 70.97428983 -160.43098661 70.97428983 -160.0546875 68.79296875 C-159.13308847 64.29556548 -157.69596469 60.23991172 -155.9921875 55.98046875 C-157.1059375 55.45453125 -157.1059375 55.45453125 -158.2421875 54.91796875 C-161.68921093 52.48938406 -163.51359654 49.87072917 -164.9921875 45.98046875 C-165.47876316 42.46147144 -165.41750835 39.02555044 -165.3046875 35.48046875 C-165.29018555 34.11341797 -165.29018555 34.11341797 -165.27539062 32.71875 C-165.05145097 19.22395196 -165.05145097 19.22395196 -162.5546875 16.29296875 C-162.0390625 15.85984375 -161.5234375 15.42671875 -160.9921875 14.98046875 C-160.6828125 14.29984375 -160.3734375 13.61921875 -160.0546875 12.91796875 C-158.68750018 10.42486246 -157.56704423 10.16351103 -154.9921875 8.98046875 C-153.92214077 8.1779337 -152.8604922 7.36415018 -151.8046875 6.54296875 C-144.20877037 1.10351962 -136.18151493 0.06272788 -126.9921875 0.98046875 C-121.60449086 2.17052223 -116.59078835 3.33866247 -112.6796875 7.35546875 C-110.13802573 10.04029601 -110.13802573 10.04029601 -107.1796875 11.66796875 C-106.4578125 12.10109375 -105.7359375 12.53421875 -104.9921875 12.98046875 C-104.9921875 13.64046875 -104.9921875 14.30046875 -104.9921875 14.98046875 C-99.69842857 14.53184511 -94.7205954 13.73522126 -89.5546875 12.48046875 C-74.48828547 8.91805535 -59.14811734 9.27316922 -43.88085938 11.35668945 C-38.8349813 12.12821084 -38.8349813 12.12821084 -33.9921875 10.98046875 C-32.43881577 9.60951829 -32.43881577 9.60951829 -30.9921875 7.98046875 C-29.74097663 6.95602318 -28.46877768 5.95682108 -27.1796875 4.98046875 C-26.21095703 4.23796875 -26.21095703 4.23796875 -25.22265625 3.48046875 C-17.42897347 -1.76081704 -9.04272498 -3.08113736 0 0 Z M15.0078125 15.98046875 C16.0078125 17.98046875 16.0078125 17.98046875 16.0078125 17.98046875 Z M16.0078125 18.98046875 C16.0078125 22.28046875 16.0078125 25.58046875 16.0078125 28.98046875 C16.3378125 28.98046875 16.6678125 28.98046875 17.0078125 28.98046875 C17.0078125 25.68046875 17.0078125 22.38046875 17.0078125 18.98046875 C16.6778125 18.98046875 16.3478125 18.98046875 16.0078125 18.98046875 Z M-163.9921875 42.98046875 C-162.9921875 44.98046875 -162.9921875 44.98046875 -162.9921875 44.98046875 Z M28.0078125 65.98046875 C29.0078125 67.98046875 29.0078125 67.98046875 29.0078125 67.98046875 Z M30.0078125 69.98046875 C31.0078125 71.98046875 31.0078125 71.98046875 31.0078125 71.98046875 Z M33.0078125 78.98046875 C34.0078125 81.98046875 34.0078125 81.98046875 34.0078125 81.98046875 Z M-163.9921875 79.98046875 C-162.9921875 81.98046875 -162.9921875 81.98046875 -162.9921875 81.98046875 Z M33.0078125 120.98046875 C34.0078125 123.98046875 34.0078125 123.98046875 34.0078125 123.98046875 Z M32.0078125 124.98046875 C33.0078125 126.98046875 33.0078125 126.98046875 33.0078125 126.98046875 Z M31.0078125 127.98046875 C32.0078125 129.98046875 32.0078125 129.98046875 32.0078125 129.98046875 Z M-160.9921875 130.98046875 C-159.9921875 132.98046875 -159.9921875 132.98046875 -159.9921875 132.98046875 Z M-158.9921875 134.98046875 C-157.9921875 136.98046875 -157.9921875 136.98046875 -157.9921875 136.98046875 Z " fill="#FDFDFD" transform="translate(164.9921875,4.01953125)"/>
<path d="M0 0 C7.63682087 3.75042687 14.6016186 8.27468922 17.47265625 16.62109375 C18.46918451 21.01454679 18.56321356 25.51562127 18.0078125 29.98046875 C17.3478125 30.97046875 16.6878125 31.96046875 16.0078125 32.98046875 C14.76624367 35.31753948 13.8491279 37.45652255 13.0078125 39.98046875 C12.0178125 40.47546875 12.0178125 40.47546875 11.0078125 40.98046875 C12.1834375 41.59921875 12.1834375 41.59921875 13.3828125 42.23046875 C16.22335803 44.12416577 16.60827765 45.00645719 18.0078125 47.98046875 C18.75417969 48.67527344 19.50054687 49.37007812 20.26953125 50.0859375 C23.57075251 53.57553087 25.61029873 57.18547982 27.8203125 61.41796875 C28.22701172 62.15595703 28.63371094 62.89394531 29.05273438 63.65429688 C31.31605797 67.93369023 32.53536027 71.01207107 32.0078125 75.98046875 C32.6678125 75.98046875 33.3278125 75.98046875 34.0078125 75.98046875 C34.92323166 81.45922492 35.18260448 86.7665591 35.2109375 92.31640625 C35.21663757 93.1951944 35.22233765 94.07398254 35.22821045 94.97940063 C35.23761261 96.83000502 35.24417528 98.68062578 35.24804688 100.53125 C35.25775951 103.34014422 35.28883119 106.14830803 35.3203125 108.95703125 C35.32684344 110.76431862 35.33209355 112.57161117 35.3359375 114.37890625 C35.3544577 115.62152725 35.3544577 115.62152725 35.37335205 116.88925171 C35.35135926 122.73409513 34.15308272 127.55270965 32.0078125 132.98046875 C31.3478125 132.98046875 30.6878125 132.98046875 30.0078125 132.98046875 C29.9665625 133.92921875 29.9253125 134.87796875 29.8828125 135.85546875 C29.14940368 141.19731209 26.11669614 145.67586064 23.0078125 149.98046875 C22.3478125 150.31046875 21.6878125 150.64046875 21.0078125 150.98046875 C20.6778125 151.97046875 20.3478125 152.96046875 20.0078125 153.98046875 C19.3478125 154.31046875 18.6878125 154.64046875 18.0078125 154.98046875 C17.7190625 155.61984375 17.4303125 156.25921875 17.1328125 156.91796875 C16.0078125 158.98046875 16.0078125 158.98046875 14.1875 159.8671875 C11.61184492 161.18271025 10.01383208 162.77892504 8.0078125 164.85546875 C7.3478125 165.53351563 6.6878125 166.2115625 6.0078125 166.91015625 C5.3478125 167.59335938 4.6878125 168.2765625 4.0078125 168.98046875 C3.2859375 169.68429688 2.5640625 170.388125 1.8203125 171.11328125 C-0.05780752 172.85996288 -0.05780752 172.85996288 -0.9921875 174.98046875 C-2.65885417 175.31380208 -4.32552083 175.64713542 -5.9921875 175.98046875 C-8.22386592 177.16759513 -8.22386592 177.16759513 -10.4296875 178.66796875 C-33.98060461 193.1742205 -63.19887243 196.65605882 -90.03051758 190.81665039 C-101.99235553 187.94702061 -112.57297695 182.97134019 -123.06640625 176.6171875 C-125.79627468 174.91234263 -125.79627468 174.91234263 -128.32421875 174.4375 C-129.14986328 174.21126953 -129.14986328 174.21126953 -129.9921875 173.98046875 C-130.3221875 172.99046875 -130.6521875 172.00046875 -130.9921875 170.98046875 C-131.9203125 170.79484375 -131.9203125 170.79484375 -132.8671875 170.60546875 C-135.96113224 169.695485 -136.37557053 167.71628208 -137.9921875 164.98046875 C-140.74768667 162.30870022 -143.80101257 160.1079187 -146.9921875 157.98046875 C-147.3221875 156.99046875 -147.6521875 156.00046875 -147.9921875 154.98046875 C-148.73984375 154.26375 -149.4875 153.54703125 -150.2578125 152.80859375 C-153.54873478 149.40483984 -155.55333215 145.89445284 -157.7421875 141.73046875 C-158.14050781 141.01761719 -158.53882813 140.30476562 -158.94921875 139.5703125 C-161.7452731 134.30993907 -162.63970042 129.92575079 -162.9921875 123.98046875 C-163.6521875 123.98046875 -164.3121875 123.98046875 -164.9921875 123.98046875 C-165.0428395 117.62674356 -165.07790072 111.27307031 -165.10205078 104.91918945 C-165.11211701 102.75706028 -165.12577104 100.59494475 -165.14306641 98.43286133 C-165.16728728 95.3276025 -165.17866431 92.22252345 -165.1875 89.1171875 C-165.19782257 88.14835129 -165.20814514 87.17951508 -165.21878052 86.18132019 C-165.21893158 85.28061295 -165.21908264 84.3799057 -165.21923828 83.4519043 C-165.2236795 82.65914597 -165.22812073 81.86638763 -165.23269653 81.04960632 C-164.85747909 77.82155084 -162.77135243 75.64921614 -160.9921875 72.98046875 C-160.43098661 70.97428983 -160.43098661 70.97428983 -160.0546875 68.79296875 C-159.13308847 64.29556548 -157.69596469 60.23991172 -155.9921875 55.98046875 C-157.1059375 55.45453125 -157.1059375 55.45453125 -158.2421875 54.91796875 C-161.68921093 52.48938406 -163.51359654 49.87072917 -164.9921875 45.98046875 C-165.47876316 42.46147144 -165.41750835 39.02555044 -165.3046875 35.48046875 C-165.29018555 34.11341797 -165.29018555 34.11341797 -165.27539062 32.71875 C-165.05145097 19.22395196 -165.05145097 19.22395196 -162.5546875 16.29296875 C-162.0390625 15.85984375 -161.5234375 15.42671875 -160.9921875 14.98046875 C-160.6828125 14.29984375 -160.3734375 13.61921875 -160.0546875 12.91796875 C-158.68750018 10.42486246 -157.56704423 10.16351103 -154.9921875 8.98046875 C-153.92214077 8.1779337 -152.8604922 7.36415018 -151.8046875 6.54296875 C-144.20877037 1.10351962 -136.18151493 0.06272788 -126.9921875 0.98046875 C-121.60449086 2.17052223 -116.59078835 3.33866247 -112.6796875 7.35546875 C-110.13802573 10.04029601 -110.13802573 10.04029601 -107.1796875 11.66796875 C-106.4578125 12.10109375 -105.7359375 12.53421875 -104.9921875 12.98046875 C-104.9921875 13.64046875 -104.9921875 14.30046875 -104.9921875 14.98046875 C-99.69842857 14.53184511 -94.7205954 13.73522126 -89.5546875 12.48046875 C-74.48828547 8.91805535 -59.14811734 9.27316922 -43.88085938 11.35668945 C-38.8349813 12.12821084 -38.8349813 12.12821084 -33.9921875 10.98046875 C-32.43881577 9.60951829 -32.43881577 9.60951829 -30.9921875 7.98046875 C-29.74097663 6.95602318 -28.46877768 5.95682108 -27.1796875 4.98046875 C-26.21095703 4.23796875 -26.21095703 4.23796875 -25.22265625 3.48046875 C-17.42897347 -1.76081704 -9.04272498 -3.08113736 0 0 Z M15.0078125 15.98046875 C16.0078125 17.98046875 16.0078125 17.98046875 16.0078125 17.98046875 Z M-137.45703125 48.171875 C-151.99697596 65.30163174 -159.48350209 85.92143717 -158.26171875 108.38916016 C-156.44059698 125.89766243 -148.58729864 141.94720429 -136.9921875 154.98046875 C-136.38890625 155.66625 -135.785625 156.35203125 -135.1640625 157.05859375 C-119.49783397 173.77801411 -95.68261313 184.42285047 -72.88671875 185.25390625 C-58.18513709 185.55139121 -44.93115023 184.83954112 -30.9921875 179.98046875 C-30.33057617 179.75053223 -29.66896484 179.5205957 -28.98730469 179.28369141 C-15.83786252 174.53173187 -4.90524746 166.72551074 5.0078125 156.98046875 C5.70648438 156.2946875 6.40515625 155.60890625 7.125 154.90234375 C21.50706562 139.79278065 28.45156338 119.37472401 28.44458008 98.75537109 C27.85541951 78.94293069 19.16642272 61.43101524 6.0078125 46.98046875 C5.42257813 46.325625 4.83734375 45.67078125 4.234375 44.99609375 C-4.49801339 35.73074269 -15.62758612 30.30150248 -26.9921875 24.98046875 C-28.3225 24.34238281 -28.3225 24.34238281 -29.6796875 23.69140625 C-41.24277948 18.57395676 -53.33561895 17.71586648 -65.8046875 17.66796875 C-66.84181885 17.66249023 -67.8789502 17.65701172 -68.94750977 17.65136719 C-94.59177542 17.88837896 -119.88089833 29.47294243 -137.45703125 48.171875 Z M16.0078125 18.98046875 C16.0078125 22.28046875 16.0078125 25.58046875 16.0078125 28.98046875 C16.3378125 28.98046875 16.6678125 28.98046875 17.0078125 28.98046875 C17.0078125 25.68046875 17.0078125 22.38046875 17.0078125 18.98046875 C16.6778125 18.98046875 16.3478125 18.98046875 16.0078125 18.98046875 Z M-163.9921875 42.98046875 C-162.9921875 44.98046875 -162.9921875 44.98046875 -162.9921875 44.98046875 Z M28.0078125 65.98046875 C29.0078125 67.98046875 29.0078125 67.98046875 29.0078125 67.98046875 Z M30.0078125 69.98046875 C31.0078125 71.98046875 31.0078125 71.98046875 31.0078125 71.98046875 Z M33.0078125 78.98046875 C34.0078125 81.98046875 34.0078125 81.98046875 34.0078125 81.98046875 Z M-163.9921875 79.98046875 C-162.9921875 81.98046875 -162.9921875 81.98046875 -162.9921875 81.98046875 Z M33.0078125 120.98046875 C34.0078125 123.98046875 34.0078125 123.98046875 34.0078125 123.98046875 Z M32.0078125 124.98046875 C33.0078125 126.98046875 33.0078125 126.98046875 33.0078125 126.98046875 Z M31.0078125 127.98046875 C32.0078125 129.98046875 32.0078125 129.98046875 32.0078125 129.98046875 Z M-160.9921875 130.98046875 C-159.9921875 132.98046875 -159.9921875 132.98046875 -159.9921875 132.98046875 Z M-158.9921875 134.98046875 C-157.9921875 136.98046875 -157.9921875 136.98046875 -157.9921875 136.98046875 Z " fill="#353334" transform="translate(164.9921875,4.01953125)"/>
<path d="M0 0 C6.58492908 3.83221282 10.13873557 9.36412782 12.6875 16.4375 C12.96870325 19.16682568 13.11901513 21.59912022 13.0625 24.3125 C13.05307373 25.01648926 13.04364746 25.72047852 13.03393555 26.44580078 C12.87379832 31.97723422 12.02856 36.45572431 9.6875 41.4375 C9.32398438 42.26765625 8.96046875 43.0978125 8.5859375 43.953125 C3.4935871 54.92631877 -3.89249207 62.17988768 -15.3515625 66.61328125 C-21.17097701 68.23319742 -26.9511889 68.36691822 -32.5625 65.9375 C-38.51424059 62.52276398 -42.72844104 56.35765103 -44.8359375 49.8828125 C-47.2299829 37.59861231 -44.85854278 26.98838982 -38.48046875 16.39453125 C-30.0747467 4.10924518 -15.41072546 -6.7936595 0 0 Z " fill="#040303" transform="translate(79.3125,59.5625)"/>
<path d="M0 0 C7.91004979 3.33218633 13.44691484 10.92968702 17.04296875 18.4765625 C20.2902695 27.50295782 20.08904791 38.57442337 16.078125 47.26953125 C13.2714827 51.71610117 9.71061214 54.73969179 4.734375 56.3984375 C-1.81033009 57.13854955 -7.01571972 56.96789761 -12.42578125 52.99609375 C-20.40515843 46.06708045 -25.85310213 37.90935691 -26.7109375 27.12890625 C-27.02813074 19.74629414 -27.21242181 12.32897231 -22.265625 6.3984375 C-21.729375 5.73070313 -21.193125 5.06296875 -20.640625 4.375 C-14.70483069 -1.8823165 -8.09881046 -2.15037381 0 0 Z " fill="#030303" transform="translate(162.265625,64.6015625)"/>
<path d="M0 0 C0.33 0 0.66 0 1 0 C1.04898437 0.81984375 1.09796875 1.6396875 1.1484375 2.484375 C1.22320312 3.56203125 1.29796875 4.6396875 1.375 5.75 C1.44460938 6.81734375 1.51421875 7.8846875 1.5859375 8.984375 C1.98338161 11.87896796 2.60209118 13.48988635 4 16 C4.60081839 17.66044356 5.18265438 19.32782342 5.75 21 C14.11660153 44.07710972 30.13184385 62.3074044 52.375 72.8125 C67.85877382 79.81112521 82.3374214 82.18018543 99.25 82.25 C100.48363281 82.270625 101.71726562 82.29125 102.98828125 82.3125 C124.58283284 82.40332882 146.50385126 73.7547044 162.87890625 59.69921875 C164.85518345 58.11601325 166.69653045 57.02898753 169 56 C159.77962299 72.48580066 141.26747036 82.14289325 124 88 C123.35434082 88.22445801 122.70868164 88.44891602 122.04345703 88.68017578 C104.68416816 94.44889636 82.37417955 94.71205903 65 89 C64.38334473 88.80664062 63.76668945 88.61328125 63.13134766 88.4140625 C40.05346357 81.06362314 20.09087159 66.26564861 8.8125 44.5 C1.66795976 29.89915777 -0.86048389 16.17709718 0 0 Z " fill="#E2E2E2" transform="translate(7,97)"/>
<path d="M0 0 C1.49080078 -0.02416992 1.49080078 -0.02416992 3.01171875 -0.04882812 C12.73515155 -0.05533645 12.73515155 -0.05533645 16.125 3.3125 C16.7109375 5.765625 16.7109375 5.765625 16.125 8.3125 C14.2265625 10.296875 14.2265625 10.296875 11.75 12.0625 C10.93789062 12.65546875 10.12578125 13.2484375 9.2890625 13.859375 C5.99908631 16.06852869 3.52474587 16.81598577 -0.50390625 16.80859375 C-5.551978 15.7524074 -10.2612869 11.9262131 -13.875 8.3125 C-14.125 5.375 -14.125 5.375 -13.875 2.3125 C-9.42643497 -0.65321002 -5.23274385 -0.01683637 0 0 Z " fill="#050505" transform="translate(116.875,125.6875)"/>
<path d="M0 0 C2.375 1.0625 2.375 1.0625 4 3 C4.57491549 6.95254396 4.61372366 9.07941451 2.375 12.4375 C-0.7370662 14.48491197 -2.34394496 14.68551032 -6 14 C-8.62846098 11.57904909 -9.81388233 9.95385308 -10.5 6.4375 C-9.30437154 0.60881127 -5.52886037 -0.80629214 0 0 Z " fill="#F3F3F3" transform="translate(80,87)"/>
<path d="M0 0 C2.375 1.625 2.375 1.625 4 4 C4.61195145 7.6717087 4.48706506 9.28813568 2.375 12.375 C-0.71186432 14.48706506 -2.3282913 14.61195145 -6 14 C-8.375 12.375 -8.375 12.375 -10 10 C-10.61195145 6.3282913 -10.48706506 4.71186432 -8.375 1.625 C-5.28813568 -0.48706506 -3.6717087 -0.61195145 0 0 Z " fill="#F4F4F4" transform="translate(152,85)"/>
<path d="M0 0 C3.125 0.25 3.125 0.25 5 1.4375 C6.50832602 3.86758081 6.48523622 5.44015752 6.125 8.25 C5.465 8.91 4.805 9.57 4.125 10.25 C1.36115924 10.03739686 -0.39893621 9.57831986 -2.6875 8 C-4.28475379 5.6461523 -4.16813806 4.03481156 -3.875 1.25 C-2.875 0.25 -2.875 0.25 0 0 Z " fill="#EFD436" transform="translate(28.875,117.75)"/>
<path d="M0 0 C2.4375 0.1875 2.4375 0.1875 3.4375 1.1875 C3.625 3.625 3.625 3.625 3.4375 6.1875 C2.7775 6.8475 2.1175 7.5075 1.4375 8.1875 C-1.1875 7.8125 -1.1875 7.8125 -3.5625 7.1875 C-4.1875 4.8125 -4.1875 4.8125 -4.5625 2.1875 C-2.5625 0.1875 -2.5625 0.1875 0 0 Z " fill="#EED53A" transform="translate(182.5625,114.8125)"/>
<path d="M0 0 C0.33 0 0.66 0 1 0 C1.04898437 0.81984375 1.09796875 1.6396875 1.1484375 2.484375 C1.22320312 3.56203125 1.29796875 4.6396875 1.375 5.75 C1.44460938 6.81734375 1.51421875 7.8846875 1.5859375 8.984375 C1.97785129 11.83869052 2.64672597 13.51172195 4 16 C4.125 18.75 4.125 18.75 4 21 C3.01 21.33 2.02 21.66 1 22 C0.18565857 19.14839609 -0.11881242 16.63373869 -0.09765625 13.671875 C-0.09282227 12.47304687 -0.09282227 12.47304687 -0.08789062 11.25 C-0.07951172 10.425 -0.07113281 9.6 -0.0625 8.75 C-0.05798828 7.90953125 -0.05347656 7.0690625 -0.04882812 6.203125 C-0.03707961 4.13538599 -0.01914522 2.06768376 0 0 Z " fill="#BABABA" transform="translate(7,97)"/>
<path d="M0 0 C-0.33 1.65 -0.66 3.3 -1 5 C-7.15234375 4.4140625 -7.15234375 4.4140625 -9 4 C-9.33 3.34 -9.66 2.68 -10 2 C-3.375 0 -3.375 0 0 0 Z " fill="#7E7D7E" transform="translate(134,15)"/>
<path d="M0 0 C7.92 0 15.84 0 24 0 C24 0.33 24 0.66 24 1 C16.08 1 8.16 1 0 1 C0 0.67 0 0.34 0 0 Z " fill="#949293" transform="translate(88,198)"/>
<path d="M0 0 C5.61 0 11.22 0 17 0 C17 0.33 17 0.66 17 1 C11.39 1 5.78 1 0 1 C0 0.67 0 0.34 0 0 Z " fill="#A8A6A8" transform="translate(92,12)"/>
<path d="M0 0 C4.95 0 9.9 0 15 0 C15 0.33 15 0.66 15 1 C10.05 1 5.1 1 0 1 C0 0.67 0 0.34 0 0 Z " fill="#3E3D3E" transform="translate(148,1)"/>
<path d="M0 0 C3.96 0 7.92 0 12 0 C12 0.33 12 0.66 12 1 C8.04 1 4.08 1 0 1 C0 0.67 0 0.34 0 0 Z " fill="#9E9D9E" transform="translate(26,3)"/>
<path d="M0 0 C2.31 0 4.62 0 7 0 C7 0.33 7 0.66 7 1 C4.69 1 2.38 1 0 1 C0 0.67 0 0.34 0 0 Z " fill="#868586" transform="translate(112,197)"/>
<path d="M0 0 C2.31 0 4.62 0 7 0 C7 0.33 7 0.66 7 1 C4.69 1 2.38 1 0 1 C0 0.67 0 0.34 0 0 Z " fill="#868586" transform="translate(81,197)"/>
<path d="M0 0 C2.31 0 4.62 0 7 0 C7 0.33 7 0.66 7 1 C4.69 1 2.38 1 0 1 C0 0.67 0 0.34 0 0 Z " fill="#A7A6A6" transform="translate(111,13)"/>
<path d="M0 0 C2.31 0 4.62 0 7 0 C7 0.33 7 0.66 7 1 C4.69 1 2.38 1 0 1 C0 0.67 0 0.34 0 0 Z " fill="#A7A6A6" transform="translate(82,13)"/>
<path d="M0 0 C1.65 0 3.3 0 5 0 C5 0.33 5 0.66 5 1 C3.35 1 1.7 1 0 1 C0 0.67 0 0.34 0 0 Z " fill="#918F90" transform="translate(119,196)"/>
<path d="M0 0 C1.65 0 3.3 0 5 0 C5 0.33 5 0.66 5 1 C3.35 1 1.7 1 0 1 C0 0.67 0 0.34 0 0 Z " fill="#918F90" transform="translate(76,196)"/>
<path d="M0 0 C1.65 0 3.3 0 5 0 C5 0.33 5 0.66 5 1 C3.35 1 1.7 1 0 1 C0 0.67 0 0.34 0 0 Z " fill="#7D7C7D" transform="translate(118,14)"/>
<path d="M0 0 C1.65 0 3.3 0 5 0 C5 0.33 5 0.66 5 1 C3.35 1 1.7 1 0 1 C0 0.67 0 0.34 0 0 Z " fill="#8E8C8D" transform="translate(77,14)"/>
<path d="M0 0 C4 1 4 1 4 1 Z " fill="#8C8A8C" transform="translate(124,195)"/>
<path d="M0 0 C4 1 4 1 4 1 Z " fill="#8A8989" transform="translate(72,195)"/>
<path d="M0 0 C4 1 4 1 4 1 Z " fill="#A4A3A4" transform="translate(128,194)"/>
<path d="M0 0 C4 1 4 1 4 1 Z " fill="#A4A3A4" transform="translate(68,194)"/>
<path d="M0 0 C4 1 4 1 4 1 Z " fill="#7B7A7B" transform="translate(69,16)"/>
<path d="M0 0 C4 1 4 1 4 1 Z " fill="#8A8989" transform="translate(123,15)"/>
<path d="M0 0 C4 1 4 1 4 1 Z " fill="#8A8989" transform="translate(73,15)"/>
<path d="M0 0 C4 1 4 1 4 1 Z " fill="#757475" transform="translate(38,4)"/>
<path d="M0 0 C4 1 4 1 4 1 Z " fill="#757475" transform="translate(22,4)"/>
<path d="M0 0 C3 1 3 1 3 1 Z " fill="#9C9B9C" transform="translate(132,193)"/>
<path d="M0 0 C3 1 3 1 3 1 Z " fill="#666465" transform="translate(65,193)"/>
<path d="M0 0 C3 1 3 1 3 1 Z " fill="#898789" transform="translate(135,192)"/>
<path d="M0 0 C3 1 3 1 3 1 Z " fill="#C0BEC0" transform="translate(62,192)"/>
<path d="M0 0 C3 1 3 1 3 1 Z " fill="#504F4F" transform="translate(140,190)"/>
<path d="M0 0 C3 1 3 1 3 1 Z " fill="#666465" transform="translate(57,190)"/>
<path d="" fill="#868586" transform="translate(0,0)"/>
<path d="" fill="#9C9B9C" transform="translate(0,0)"/>
<path d="" fill="#343334" transform="translate(0,0)"/>
<path d="" fill="#9C9B9C" transform="translate(0,0)"/>
<path d="" fill="#666465" transform="translate(0,0)"/>
<path d="M0 0 C3 1 3 1 3 1 Z " fill="#9C9B9C" transform="translate(63,18)"/>
<path d="M0 0 C3 1 3 1 3 1 Z " fill="#9C9B9C" transform="translate(66,17)"/>
<path d="M0 0 C3 1 3 1 3 1 Z " fill="#9C9B9C" transform="translate(42,5)"/>
<path d="M0 0 C3 1 3 1 3 1 Z " fill="#A5A3A4" transform="translate(143,3)"/>
<path d="M0 0 C2 1 2 1 2 1 Z " fill="#4E4D4E" transform="translate(138,191)"/>
<path d="M0 0 C2 1 2 1 2 1 Z " fill="#4E4D4E" transform="translate(60,191)"/>
<path d="M0 0 C2 1 2 1 2 1 Z " fill="#A09FA0" transform="translate(143,189)"/>
<path d="M0 0 C2 1 2 1 2 1 Z " fill="#4E4D4E" transform="translate(55,189)"/>
<path d="M0 0 C2 1 2 1 2 1 Z " fill="#4E4D4E" transform="translate(145,188)"/>
<path d="M0 0 C2 1 2 1 2 1 Z " fill="#4E4D4E" transform="translate(53,188)"/>
<path d="M0 0 C2 1 2 1 2 1 Z " fill="#4E4D4E" transform="translate(147,187)"/>
<path d="M0 0 C2 1 2 1 2 1 Z " fill="#4E4D4E" transform="translate(51,187)"/>
<path d="M0 0 C2 1 2 1 2 1 Z " fill="#A09FA0" transform="translate(149,186)"/>
<path d="M0 0 C2 1 2 1 2 1 Z " fill="#A09FA0" transform="translate(49,186)"/>
<path d="M0 0 C2 1 2 1 2 1 Z " fill="#A09FA0" transform="translate(151,185)"/>
<path d="M0 0 C2 1 2 1 2 1 Z " fill="#CAC8C9" transform="translate(47,185)"/>
<path d="M0 0 C2 1 2 1 2 1 Z " fill="#5B595B" transform="translate(44,183)"/>
<path d="M0 0 C2 1 2 1 2 1 Z " fill="#A09FA0" transform="translate(156,182)"/>
<path d="M0 0 C2 1 2 1 2 1 Z " fill="#CAC8C9" transform="translate(42,182)"/>
<path d="M0 0 C2 1 2 1 2 1 Z " fill="#A09FA0" transform="translate(159,180)"/>
<path d="M0 0 C2 1 2 1 2 1 Z " fill="#A09FA0" transform="translate(39,180)"/>
<path d="M0 0 C2 1 2 1 2 1 Z " fill="#2D2C2D" transform="translate(167,174)"/>
<path d="" fill="#787677" transform="translate(0,0)"/>
<path d="" fill="#787677" transform="translate(0,0)"/>
<path d="" fill="#6B6A6B" transform="translate(0,0)"/>
<path d="" fill="#6B6A6B" transform="translate(0,0)"/>
<path d="" fill="#6B6A6B" transform="translate(0,0)"/>
<path d="M0 0 C2 1 2 1 2 1 Z " fill="#7F7E7F" transform="translate(51,10)"/>
<path d="M0 0 C2 1 2 1 2 1 Z " fill="#7F7E7F" transform="translate(11,10)"/>
<path d="M0 0 C2 1 2 1 2 1 Z " fill="#5B595B" transform="translate(14,8)"/>
<path d="M0 0 C2 1 2 1 2 1 Z " fill="#7F7E7F" transform="translate(170,6)"/>
<path d="M0 0 C2 1 2 1 2 1 Z " fill="#4E4D4E" transform="translate(45,6)"/>
<path d="M0 0 C2 1 2 1 2 1 Z " fill="#787677" transform="translate(17,6)"/>
<path d="M0 0 C2 1 2 1 2 1 Z " fill="#A09FA0" transform="translate(140,5)"/>
<path d="M0 0 C2 1 2 1 2 1 Z " fill="#6B6A6B" transform="translate(20,5)"/>
<path d="M0 0 C2 1 2 1 2 1 Z " fill="#4E4D4E" transform="translate(167,4)"/>
<path d="M0 0 C2 1 2 1 2 1 Z " fill="#7F7E7F" transform="translate(165,3)"/>
<path d="M0 0 C2 1 2 1 2 1 Z " fill="#787677" transform="translate(163,2)"/>
<path d="M0 0 C2 1 2 1 2 1 Z " fill="#6B6A6B" transform="translate(146,2)"/>
<path d="" fill="#424142" transform="translate(0,0)"/>
<path d="" fill="#959494" transform="translate(0,0)"/>
<path d="" fill="#959494" transform="translate(0,0)"/>
<path d="" fill="#959494" transform="translate(0,0)"/>
<path d="" fill="#959494" transform="translate(0,0)"/>
<path d="" fill="#424142" transform="translate(0,0)"/>
<path d="" fill="#959494" transform="translate(0,0)"/>
<path d="" fill="#959494" transform="translate(0,0)"/>
<path d="" fill="#959494" transform="translate(0,0)"/>
<path d="" fill="#424142" transform="translate(0,0)"/>
<path d="" fill="#424142" transform="translate(0,0)"/>
<path d="" fill="#FFFDFF" transform="translate(0,0)"/>
<path d="" fill="#959494" transform="translate(0,0)"/>
<path d="" fill="#959494" transform="translate(0,0)"/>
<path d="" fill="#959494" transform="translate(0,0)"/>
<path d="" fill="#424142" transform="translate(0,0)"/>
<path d="" fill="#424142" transform="translate(0,0)"/>
<path d="" fill="#959494" transform="translate(0,0)"/>
<path d="" fill="#959494" transform="translate(0,0)"/>
<path d="" fill="#424142" transform="translate(0,0)"/>
<path d="" fill="#959494" transform="translate(0,0)"/>
<path d="" fill="#424142" transform="translate(0,0)"/>
<path d="" fill="#959494" transform="translate(0,0)"/>
<path d="" fill="#424142" transform="translate(0,0)"/>
<path d="" fill="#959494" transform="translate(0,0)"/>
<path d="" fill="#959494" transform="translate(0,0)"/>
<path d="" fill="#959494" transform="translate(0,0)"/>
<path d="" fill="#959494" transform="translate(0,0)"/>
<path d="" fill="#959494" transform="translate(0,0)"/>
<path d="" fill="#959494" transform="translate(0,0)"/>
<path d="" fill="#959494" transform="translate(0,0)"/>
<path d="" fill="#959494" transform="translate(0,0)"/>
<path d="" fill="#959494" transform="translate(0,0)"/>
<path d="" fill="#959494" transform="translate(0,0)"/>
<path d="" fill="#959494" transform="translate(0,0)"/>
<path d="" fill="#959494" transform="translate(0,0)"/>
<path d="" fill="#959494" transform="translate(0,0)"/>
<path d="" fill="#959494" transform="translate(0,0)"/>
<path d="" fill="#959494" transform="translate(0,0)"/>
<path d="" fill="#424142" transform="translate(0,0)"/>
<path d="" fill="#959494" transform="translate(0,0)"/>
<path d="" fill="#959494" transform="translate(0,0)"/>
<path d="" fill="#959494" transform="translate(0,0)"/>
<path d="" fill="#5B595B" transform="translate(0,0)"/>
<path d="" fill="#FFFDFF" transform="translate(0,0)"/>
<path d="" fill="#959494" transform="translate(0,0)"/>
<path d="" fill="#FFFDFF" transform="translate(0,0)"/>
<path d="" fill="#5B595B" transform="translate(0,0)"/>
<path d="" fill="#959494" transform="translate(0,0)"/>
<path d="" fill="#424142" transform="translate(0,0)"/>
<path d="" fill="#959494" transform="translate(0,0)"/>
<path d="" fill="#959494" transform="translate(0,0)"/>
<path d="" fill="#959494" transform="translate(0,0)"/>
<path d="" fill="#959494" transform="translate(0,0)"/>
<path d="" fill="#959494" transform="translate(0,0)"/>
<path d="" fill="#959494" transform="translate(0,0)"/>
<path d="" fill="#FFFDFF" transform="translate(0,0)"/>
<path d="" fill="#959494" transform="translate(0,0)"/>
<path d="" fill="#959494" transform="translate(0,0)"/>
<path d="" fill="#959494" transform="translate(0,0)"/>
<path d="" fill="#FFFDFF" transform="translate(0,0)"/>
<path d="" fill="#424142" transform="translate(0,0)"/>
<path d="" fill="#424142" transform="translate(0,0)"/>
</svg>
